Coordinates
version=1
nRows=12
nColumns=24
inDegrees=yes

Units are S.I. units (second, meters, Newtons, ...)
Angles are in degrees.

endheader
time	pelvis_tilt	pelvis_list	pelvis_rotation	pelvis_tx	pelvis_ty	pelvis_tz	hip_flexion_r	hip_adduction_r	hip_rotation_r	knee_angle_r	ankle_angle_r	subtalar_angle_r	mtp_angle_r	hip_flexion_l	hip_adduction_l	hip_rotation_l	knee_angle_l	ankle_angle_l	subtalar_angle_l	mtp_angle_l	lumbar_extension	lumbar_bending	lumbar_rotation
      1.61466667	      1.14727422	      7.95503536	     -1.97351945	      0.54057601	      0.99548614	      0.26525891	     20.02271264	     -9.35740267	      2.87472672	    -63.37846007	      6.79663702	    -12.42107099	      1.54835463	      3.93763214	     14.35879901	      0.96625481	     -9.92146947	      3.63836509	    -13.30458088	     -1.73080796	      0.32918820	     -5.90373882	      3.61710870
      1.61883333	      1.22544710	      7.84742428	     -1.81909418	      0.54525368	      0.99590395	      0.26498596	     20.42886888	     -9.21565742	      2.82582109	    -62.71282096	      7.18319926	    -12.50072855	      1.45798080	      3.36048307	     14.28375920	      1.29396490	     -9.62065445	      3.67245236	    -13.42528349	     -1.75220920	      0.18700930	     -5.79765702	      3.41208998
      1.62300000	      1.28948271	      7.75193991	     -1.66200450	      0.54991499	      0.99626018	      0.26471841	     20.84241774	     -9.08802954	      2.77649049	    -62.01876866	      7.53775330	    -12.56716686	      1.36154094	      2.80634267	     14.21664174	      1.61506401	     -9.33010425	      3.71413851	    -13.53998073	     -1.77403252	      0.05922428	     -5.70375250	      3.21571669
      1.62716667	      1.36728120	      7.65537952	     -1.50378935	      0.55457731	      0.99660845	      0.26445824	     21.22316089	     -8.96223129	      2.71952846	    -61.28218191	      7.84730179	    -12.63284803	      1.25071220	      2.23707829	     14.14377388	      1.93614133	     -9.03699514	      3.74943796	    -13.65185580	     -1.79816639	     -0.08447436	     -5.61031086	      3.01514178
      1.63133333	      1.41029135	      7.54063641	     -1.32379661	      0.55921782	      0.99690165	      0.26420053	     21.61715430	     -8.81585197	      2.64513552	    -60.49953124	      8.14648083	    -12.69633679	      1.18746846	      1.73487316	     14.04107808	      2.21832127	     -8.80593511	      3.82818293	    -13.68354786	     -1.80961628	     -0.18673628	     -5.49829076	      2.88725396
      1.63550000	      1.51149460	      7.47042428	     -1.18326194	      0.56388262	      0.99718848	      0.26396014	     21.95795480	     -8.72259088	      2.59286668	    -59.71336819	      8.36723957	    -12.77951657	      1.06318200	      1.12811631	     13.99013744	      2.54481792	     -8.47871287	      3.86616404	    -13.82544449	     -1.83389249	     -0.36159760	     -5.43118418	      2.61923751
      1.63966667	      1.53257497	      7.38357692	     -1.00117767	      0.56849501	      0.99735194	      0.26371061	     22.36146828	     -8.61132467	      2.51606556	    -58.88720771	      8.60412686	    -12.83107957	      0.99132942	      0.66157796	     13.90891328	      2.82598238	     -8.26228068	      3.95353317	    -13.85825706	     -1.84488679	     -0.43885250	     -5.34829327	      2.49414426
      1.64383333	      1.59797945	      7.32360917	     -0.85456018	      0.57314420	      0.99752606	      0.26347718	     22.71641123	     -8.52948069	      2.46150011	    -58.04399102	      8.75798037	    -12.92696460	      0.83664618	      0.10327803	     13.85881457	      3.15100900	     -7.95037304	      3.99184770	    -14.00139145	     -1.87180772	     -0.57585391	     -5.29327797	      2.20989379
      1.64800000	      1.62045425	      7.23597633	     -0.67559810	      0.57775643	      0.99762953	      0.26323893	     23.08939784	     -8.42158305	      2.37623327	    -57.15659331	      8.93831533	    -12.97954574	      0.76440976	     -0.35679430	     13.76707482	      3.41004282	     -7.74664023	      4.10657242	    -13.99956717	     -1.88049151	     -0.65466125	     -5.20652733	      2.10324762
      1.65216667	      1.68930276	      7.18764316	     -0.53297290	      0.58238647	      0.99774459	      0.26303683	     23.41549304	     -8.35075465	      2.32212496	    -56.25996426	      9.04440958	    -13.08407318	      0.59619608	     -0.90864591	     13.71817858	      3.71136631	     -7.44820551	      4.16204576	    -14.10721709	     -1.90487692	     -0.79629258	     -5.17045474	      1.81922892
      1.65633333	      1.69796646	      7.12020610	     -0.35660730	      0.58699049	      0.99776737	      0.26280920	     23.78184875	     -8.26829238	      2.23413423	    -55.32758626	      9.17399348	    -13.13240036	      0.51991292	     -1.34667445	     13.63966049	      3.95796579	     -7.25417588	      4.28573024	    -14.09099106	     -1.91213616	     -0.86001961	     -5.10354519	      1.71538993
      1.66050000	      1.75431998	      7.07878078	     -0.21679134	      0.59160594	      0.99779440	      0.26262119	     24.09772682	     -8.20661224	      2.17366285	    -54.38614330	      9.24563307	    -13.22523593	      0.35980443	     -1.87053300	     13.58910892	      4.23179461	     -6.98127629	      4.37226772	    -14.15985737	     -1.93184572	     -0.99084718	     -5.07567656	      1.44282123
